<?xml version="1.0" encoding="UTF-8" standalone="no"?>
<svg width="16px" height="16px" viewBox="0 0 16 16" version="1.1" xmlns="http://www.w3.org/2000/svg" xmlns:xlink="http://www.w3.org/1999/xlink">
    <g stroke="none" stroke-width="1" fill="#707070" fill-rule="evenodd" transform="translate(0.000000, 4.000000)">
        <path d="M13.225873,2.96927531 C13.2681462,2.98822763 13.2042026,2.95147037 12.4680729,1.84651878 C11.7319432,0.741567188 11.5862069,0 11.5862069,0 L12.3274097,0 C12.3354236,0 13.7706327,1.71751622 14.3507757,2.19127948 C14.9792119,2.66504275 16,3.19349187 16,3.20823761 L16,3.79155354 C16,3.76729546 15.0565077,4.30788041 14.3507757,4.87744572 C13.5967489,5.44701102 12.3193962,6.99979115 12.3274097,7 L11.5862069,7 C11.5862069,7 12.0433676,5.69056016 12.4680729,5.08845446 C13.2261584,4.01371488 13.1835999,3.99962219 13.225873,4.04141676 L3.48186882e-30,4.04141676 L0.000932807432,2.96927531 L13.225873,2.96927531 Z"></path>
    </g>
</svg>